<svg width="53.87" height="43.61" viewBox="0 0 382 157" fill="none" xmlns="http://www.w3.org/2000/svg">
<g clip-path="url(#clip0_203_23)">
<rect width="382" height="157" fill="#E5E5E5" fill-opacity="0.64"/>
<path d="M42.6598 117.944C37.7318 117.944 33.3478 116.696 29.5078 114.2C25.6678 111.768 22.4038 108.504 19.7158 104.408C17.0918 100.312 15.0758 95.768 13.6678 90.776C12.3238 85.72 11.6517 80.632 11.6517 75.512C11.6517 71.032 12.1958 66.712 13.2838 62.552C14.3718 58.392 16.0678 54.68 18.3718 51.416C20.6758 48.088 23.5558 45.464 27.0118 43.544C30.5318 41.624 34.6918 40.664 39.4918 40.664C44.0998 40.664 47.8438 41.496 50.7238 43.16C53.6678 44.824 55.8438 46.968 57.2518 49.592C58.6598 52.216 59.3638 54.968 59.3638 57.848C59.3638 60.728 58.6918 63.544 57.3478 66.296C56.0038 68.984 54.0518 71.224 51.4918 73.016C48.9958 74.744 45.9238 75.672 42.2758 75.8C41.6998 75.8 41.4118 75.672 41.4118 75.416C41.4118 74.904 42.0198 74.584 43.2358 74.456C45.8598 74.392 48.0998 73.624 49.9558 72.152C51.8118 70.616 53.2198 68.696 54.1798 66.392C55.1398 64.024 55.6198 61.56 55.6198 59C55.6198 56.248 55.0118 53.592 53.7958 51.032C52.6438 48.472 50.8198 46.36 48.3238 44.696C45.8278 43.032 42.6278 42.2 38.7238 42.2C34.8198 42.2 31.4598 43.064 28.6438 44.792C25.8278 46.52 23.4918 48.888 21.6358 51.896C19.8438 54.84 18.4998 58.2 17.6038 61.976C16.7078 65.752 16.2598 69.72 16.2598 73.88C16.2598 78.936 16.8678 83.96 18.0838 88.952C19.3638 93.944 21.1878 98.52 23.5558 102.68C25.9238 106.776 28.8038 110.04 32.1958 112.472C35.5878 114.968 39.4598 116.216 43.8118 116.216C46.7558 116.216 49.4758 115.544 51.9718 114.2C54.4678 112.92 56.4838 110.936 58.0198 108.248C59.6198 105.624 60.4198 102.328 60.4198 98.36C60.4198 96.952 60.3238 95.48 60.1318 93.944C59.9398 92.408 59.5878 90.776 59.0758 89.048C59.0118 88.856 58.9798 88.632 58.9798 88.376C58.9798 87.928 59.1078 87.704 59.3638 87.704C59.6838 87.704 59.9718 88.024 60.2278 88.664C61.4438 92.312 62.0518 95.736 62.0518 98.936C62.0518 102.712 61.2518 106.008 59.6518 108.824C58.0518 111.704 55.8118 113.944 52.9318 115.544C50.0518 117.144 46.6278 117.944 42.6598 117.944ZM75.7948 74.936C75.2188 74.936 74.8028 74.648 74.5468 74.072C74.3548 73.432 74.2588 72.984 74.2588 72.728C74.2588 71.704 74.5468 70.744 75.1228 69.848C75.7628 68.888 76.4668 68.376 77.2348 68.312H77.5228C78.2908 68.312 78.8028 68.504 79.0588 68.888C79.3788 69.208 79.5388 69.624 79.5388 70.136C79.5388 71.096 79.1228 72.152 78.2908 73.304C77.4588 74.392 76.6268 74.936 75.7948 74.936ZM70.8988 109.304C68.7228 109.304 67.2508 108.472 66.4828 106.808C65.7148 105.144 65.3308 103.224 65.3308 101.048C65.3308 98.872 65.5548 96.6 66.0028 94.232C66.5148 91.8 67.0588 89.592 67.6348 87.608C68.2748 85.624 68.7548 84.216 69.0748 83.384C69.7788 81.912 70.4828 80.664 71.1868 79.64C71.8908 78.552 72.6588 78.008 73.4908 78.008C74.0668 78.008 74.4828 78.232 74.7388 78.68C75.0588 79.064 75.2188 79.576 75.2188 80.216C75.2188 81.496 74.8668 82.808 74.1628 84.152C73.4588 85.432 72.8188 86.648 72.2428 87.8C70.9628 90.424 69.9388 92.76 69.1708 94.808C68.4668 96.856 68.1148 99.416 68.1148 102.488C68.1148 104.472 68.3068 105.912 68.6908 106.808C69.1388 107.704 69.7468 108.152 70.5148 108.152C71.5388 108.152 72.7228 107.576 74.0668 106.424C75.4108 105.208 76.7868 103.608 78.1948 101.624C79.6028 99.64 80.8508 97.496 81.9388 95.192C82.6428 93.72 83.1868 92.984 83.5708 92.984C83.8268 92.984 83.9548 93.24 83.9548 93.752C83.9548 94.456 83.6668 95.48 83.0908 96.824C82.5788 98.104 81.9388 99.416 81.1708 100.76C80.4668 102.104 79.7948 103.16 79.1548 103.928C78.0668 105.336 76.8188 106.584 75.4108 107.672C74.0028 108.76 72.4988 109.304 70.8988 109.304ZM89.8168 113.432C89.4328 113.432 89.0488 113.208 88.6648 112.76C88.3448 112.312 88.1208 111.608 87.9928 110.648C87.9288 110.392 87.8968 110.008 87.8968 109.496C87.8968 109.048 87.8968 108.504 87.8968 107.864C87.8968 106.584 87.8968 105.304 87.8968 104.024C87.9608 102.68 87.9928 101.784 87.9928 101.336C87.9928 98.648 87.8648 95.928 87.6088 93.176C87.3528 90.424 86.8408 88.12 86.0728 86.264C85.3048 84.408 84.0888 83.48 82.4248 83.48C81.4008 83.48 80.4408 83.864 79.5448 84.632C78.7127 85.336 78.0087 86.072 77.4327 86.84C76.7927 87.608 76.3447 87.992 76.0887 87.992C75.8327 87.992 75.7047 87.864 75.7047 87.608C75.7047 87.288 75.9927 86.776 76.5687 86.072C77.1447 85.304 77.5607 84.792 77.8167 84.536C78.7767 83.576 79.8328 82.712 80.9848 81.944C82.2008 81.176 83.3208 80.792 84.3448 80.792C85.9448 80.792 87.1928 81.688 88.0888 83.48C88.9848 85.208 89.6248 87.416 90.0088 90.104C90.3928 92.728 90.5848 95.384 90.5848 98.072C90.5848 99.416 90.5528 100.728 90.4888 102.008C90.4248 103.224 90.3288 104.344 90.2008 105.368C90.7768 103.768 91.5128 101.88 92.4088 99.704C93.3048 97.464 94.3288 95.192 95.4808 92.888C96.6968 90.52 97.9768 88.312 99.3208 86.264C100.665 84.216 102.105 82.52 103.641 81.176C104.537 80.408 105.209 80.024 105.657 80.024C106.041 80.024 106.233 80.216 106.233 80.6C106.233 81.24 105.689 82.04 104.601 83C102.361 84.984 100.473 87.256 98.9368 89.816C97.4008 92.376 96.1528 95 95.1928 97.688C94.2968 100.376 93.6248 102.904 93.1768 105.272C92.7288 107.64 92.4408 109.592 92.3128 111.128C92.2488 111.576 91.9608 112.056 91.4488 112.568C90.9368 113.144 90.3928 113.432 89.8168 113.432ZM113.201 74.936C112.625 74.936 112.209 74.648 111.953 74.072C111.761 73.432 111.665 72.984 111.665 72.728C111.665 71.704 111.953 70.744 112.529 69.848C113.169 68.888 113.873 68.376 114.641 68.312H114.929C115.697 68.312 116.209 68.504 116.465 68.888C116.785 69.208 116.945 69.624 116.945 70.136C116.945 71.096 116.529 72.152 115.697 73.304C114.865 74.392 114.033 74.936 113.201 74.936ZM108.305 109.304C106.129 109.304 104.657 108.472 103.889 106.808C103.121 105.144 102.737 103.224 102.737 101.048C102.737 98.872 102.961 96.6 103.409 94.232C103.921 91.8 104.465 89.592 105.041 87.608C105.681 85.624 106.161 84.216 106.481 83.384C107.185 81.912 107.889 80.664 108.593 79.64C109.297 78.552 110.065 78.008 110.897 78.008C111.473 78.008 111.889 78.232 112.145 78.68C112.465 79.064 112.625 79.576 112.625 80.216C112.625 81.496 112.273 82.808 111.569 84.152C110.865 85.432 110.225 86.648 109.649 87.8C108.369 90.424 107.345 92.76 106.577 94.808C105.873 96.856 105.521 99.416 105.521 102.488C105.521 104.472 105.713 105.912 106.097 106.808C106.545 107.704 107.153 108.152 107.921 108.152C108.945 108.152 110.129 107.576 111.473 106.424C112.817 105.208 114.193 103.608 115.601 101.624C117.009 99.64 118.257 97.496 119.345 95.192C120.049 93.72 120.593 92.984 120.977 92.984C121.233 92.984 121.361 93.24 121.361 93.752C121.361 94.456 121.073 95.48 120.497 96.824C119.985 98.104 119.345 99.416 118.577 100.76C117.873 102.104 117.201 103.16 116.561 103.928C115.473 105.336 114.225 106.584 112.817 107.672C111.409 108.76 109.905 109.304 108.305 109.304ZM133.559 122.264C132.727 122.264 131.927 121.944 131.159 121.304C130.455 120.664 129.847 120.024 129.335 119.384C127.287 117.016 125.559 113.88 124.151 109.976C122.807 106.072 121.783 101.784 121.079 97.112C120.375 92.376 120.023 87.576 120.023 82.712C120.023 78.168 120.311 73.752 120.887 69.464C121.527 65.176 122.487 61.272 123.767 57.752C125.047 54.232 126.647 51.416 128.567 49.304C131.063 46.488 133.463 45.08 135.767 45.08C137.175 45.08 138.295 45.72 139.127 47C140.023 48.216 140.471 50.168 140.471 52.856C140.471 55.416 139.959 58.68 138.935 62.648C137.975 66.552 136.311 71.224 133.943 76.664C133.111 78.456 132.215 80.248 131.255 82.04C130.359 83.832 129.399 85.72 128.375 87.704C127.991 88.472 127.671 88.856 127.415 88.856C127.287 88.856 127.223 88.728 127.223 88.472C127.223 87.96 127.447 87.288 127.895 86.456C133.719 75.512 136.631 64.632 136.631 53.816C136.631 49.528 135.735 47.384 133.943 47.384C132.663 47.384 131.159 48.632 129.431 51.128C127.063 54.648 125.431 58.84 124.535 63.704C123.639 68.504 123.191 73.368 123.191 78.296C123.191 82.008 123.351 85.624 123.671 89.144C123.991 92.6 124.375 95.736 124.823 98.552C125.015 99.768 125.303 101.4 125.687 103.448C126.071 105.496 126.583 107.64 127.223 109.88C127.863 112.184 128.567 114.264 129.335 116.12C130.167 118.04 131.063 119.416 132.023 120.248C132.279 120.44 132.535 120.632 132.791 120.824C133.111 121.08 133.463 121.24 133.847 121.304C134.423 121.304 134.711 121.464 134.711 121.784C134.711 122.104 134.327 122.264 133.559 122.264ZM143.444 111.128C142.612 111.128 142.004 110.84 141.62 110.264C141.3 109.752 141.14 109.24 141.14 108.728C141.14 107.704 141.588 106.648 142.484 105.56C142.804 105.176 143.252 104.664 143.828 104.024C144.404 103.32 144.82 102.776 145.076 102.392C144.244 101.24 143.124 100.184 141.716 99.224C140.308 98.264 138.932 97.048 137.588 95.576C136.372 94.232 135.348 92.6 134.516 90.68C133.684 88.696 133.268 86.808 133.268 85.016C133.268 82.904 133.748 80.888 134.708 78.968C135.668 77.048 136.852 75.384 138.26 73.976C139.796 72.44 141.492 71.224 143.348 70.328C145.204 69.368 147.124 68.888 149.108 68.888C150.452 68.888 151.764 69.208 153.044 69.848C154.324 70.488 154.964 71.544 154.964 73.016C154.964 74.744 154.58 75.608 153.812 75.608C153.492 75.608 153.268 75.288 153.14 74.648C153.076 74.328 153.044 74.008 153.044 73.688C153.044 73.304 153.044 73.048 153.044 72.92C153.044 72.28 152.756 71.736 152.18 71.288C151.604 70.776 150.964 70.52 150.26 70.52C148.788 70.52 147.156 71.096 145.364 72.248C143.572 73.4 142.068 74.744 140.852 76.28C139.636 77.88 138.644 79.704 137.876 81.752C137.108 83.736 136.724 85.656 136.724 87.512C136.724 89.816 137.236 91.8 138.26 93.464C139.284 95.128 140.5 96.6 141.908 97.88C143.38 99.16 144.692 100.408 145.844 101.624C146.42 100.92 147.028 100.248 147.668 99.608C148.372 98.968 149.012 98.456 149.588 98.072C150.1 97.752 150.452 97.592 150.644 97.592C150.836 97.592 150.932 97.688 150.932 97.88C150.932 98.2 150.644 98.584 150.068 99.032C149.94 99.16 149.556 99.544 148.916 100.184C148.34 100.76 147.636 101.496 146.804 102.392C147.316 102.968 147.732 103.576 148.052 104.216C148.372 104.856 148.532 105.56 148.532 106.328C148.532 107.352 147.956 108.408 146.804 109.496C145.652 110.584 144.532 111.128 143.444 111.128ZM144.5 108.536C144.948 108.536 145.364 108.12 145.748 107.288C146.196 106.52 146.42 105.752 146.42 104.984C146.42 104.6 146.356 104.248 146.228 103.928C146.1 103.608 146.004 103.416 145.94 103.352C145.428 103.992 144.948 104.696 144.5 105.464C144.116 106.168 143.924 106.808 143.924 107.384C143.924 108.152 144.116 108.536 144.5 108.536ZM161.375 41.75H170.75V107H161.375V41.75ZM207.125 65.9375C202.469 65.9375 198.328 67.5156 194.703 70.6719V107H185.328V58.625H194L194.656 63.875C199.75 59.875 205.016 57.875 210.453 57.875C216.203 57.875 220.422 59.5938 223.109 63.0312C225.922 66.6562 227.328 72.5 227.328 80.5625V107H217.953V80.5625C217.953 72.8125 215.859 68.1875 211.672 66.6875C210.328 66.1875 208.812 65.9375 207.125 65.9375ZM248.703 63.9219C251.422 61.8281 254.469 60.2969 257.844 59.3281C261.25 58.3594 264.219 57.875 266.75 57.875C269.281 57.875 271.234 57.9375 272.609 58.0625V37.25H281.938V107H273.547L273.172 101.422C271.266 103.953 268.375 105.828 264.5 107.047C263 107.516 261.469 107.75 259.906 107.75C258.375 107.75 256.859 107.594 255.359 107.281C253.859 106.969 252.359 106.453 250.859 105.734C249.391 104.984 247.984 104.016 246.641 102.828C245.297 101.609 244.094 100.125 243.031 98.375C240.781 94.5312 239.656 89.9844 239.656 84.7344C239.656 79.4844 240.484 75.2344 242.141 71.9844C243.828 68.7031 246.016 66.0156 248.703 63.9219ZM254.375 69.5C252.781 71 251.547 72.9375 250.672 75.3125C249.828 77.6562 249.406 80.5156 249.406 83.8906C249.406 87.2344 249.812 90 250.625 92.1875C251.438 94.3438 252.453 96.0312 253.672 97.25C255.828 99.4375 258.422 100.531 261.453 100.531C265.359 100.531 268.594 99.0938 271.156 96.2188C271.812 95.5 272.281 94.8594 272.562 94.2969V65.4688L271.625 65.375C270.188 65.1875 268.469 65.0938 266.469 65.0938C264.5 65.0938 262.391 65.4531 260.141 66.1719C257.891 66.8594 255.969 67.9688 254.375 69.5ZM308.281 44.5625C308.281 46.3438 307.688 47.7188 306.5 48.6875C305.344 49.625 303.891 50.0938 302.141 50.0938C300.391 50.0938 298.938 49.625 297.781 48.6875C296.656 47.7188 296.094 46.3438 296.094 44.5625C296.094 42.75 296.656 41.375 297.781 40.4375C298.938 39.5 300.391 39.0312 302.141 39.0312C303.891 39.0312 305.344 39.5 306.5 40.4375C307.688 41.375 308.281 42.75 308.281 44.5625ZM297.312 58.625H306.688V107H297.312V58.625ZM323.609 98.375C322.578 96.5938 321.75 94.5 321.125 92.0938C320.531 89.6875 320.234 86.5469 320.234 82.6719C320.234 78.7969 321.062 75.2344 322.719 71.9844C324.406 68.7031 326.594 66.0156 329.281 63.9219C334.5 59.8906 340.984 57.875 348.734 57.875C352.766 57.875 355.812 57.9688 357.875 58.1562C357.875 58.1562 359.391 58.3125 362.422 58.625V107H353.984L353.609 101.422C351.734 103.922 348.875 105.781 345.031 107C343.562 107.469 342.047 107.703 340.484 107.703C338.953 107.703 337.438 107.547 335.938 107.234C334.438 106.922 332.938 106.406 331.438 105.688C329.969 104.969 328.562 104.016 327.219 102.828C325.875 101.609 324.672 100.125 323.609 98.375ZM353.047 65.5156C351.047 65.2656 349.047 65.1406 347.047 65.1406C345.078 65.1406 342.969 65.5 340.719 66.2188C338.469 66.9062 336.547 68 334.953 69.5C331.641 72.625 329.984 77.3906 329.984 83.7969C329.984 89.8594 331.406 94.3438 334.25 97.25C336.406 99.4062 339 100.484 342.031 100.484C345.938 100.484 349.156 99.0625 351.688 96.2188C352.312 95.5 352.766 94.8594 353.047 94.2969V65.5156Z" fill="#201DB5"/>
</g>
<defs>
<clipPath id="clip0_203_23">
<rect width="382" height="157" fill="white"/>
</clipPath>
</defs>
</svg>
